<svg xmlns="http://www.w3.org/2000/svg" xmlns:xlink="http://www.w3.org/1999/xlink" width="512" height="512" viewBox="0 0 512 512" fill="none"><g  clip-path="url(#clip-path-1_2)"><g filter="url(#filter_1_4)"><rect  x="125.35009765625" y="34" width="378.64957427978516" height="443.9997863769531" rx="25"    fill="#0E64C7" ></rect></g><g mask="url(#mask-1_4)"><g filter="url(#filter_1_8)"><rect x="314.6751403808594" y="252.873291015625" width="189.3248291015625" height="107.87321472167969"   fill="#1471DB" ></rect></g></g><g mask="url(#mask-1_4)"><g filter="url(#filter_1_7)"><rect x="125.35009765625" y="149.690185546875" width="378.64957427978516" height="103.18302917480469"   fill="#1B81F5" ></rect></g></g><g mask="url(#mask-1_4)"><g filter="url(#filter_1_5)"><rect x="125.35009765625" y="34" width="378.64957427978516" height="115.69012451171875"   fill="#66ADFF" ></rect></g></g><g mask="url(#mask-1_4)" style="mix-blend-mode:color-burn"><rect x="125.2552490234375" y="34" width="378.7446746826172" height="443.9998779296875"   fill="url(#linear_fill_3_1)" ></rect></g><g filter="url(#filter_1_3)"><rect  x="8" y="127.80279541015625" width="253.47616577148438" height="253.26747131347656" rx="25"    fill="#0F69D1" ></rect></g><path d="M187.267 323.41C192.326 328.484 195.451 324.876 199.605 320.735C203.76 316.594 207.361 313.462 202.301 308.398C202.301 308.398 131.777 237.998 114.36 220.643L99.3255 235.656L187.267 323.41ZM71.3234 247.88L77.1735 242.13C77.1735 242.13 74.5914 235.056 78.3739 231.667C82.1564 228.278 88.5402 230.372 88.5402 230.372L109.072 210.542C109.072 210.542 107.634 200.232 109.539 198.328C111.445 196.424 132.739 186.057 134.797 183.982L130.424 179.612C130.424 179.612 100.621 183.192 97.3914 186.409C95.4954 188.313 81.3085 202.631 71.1901 212.742C71.1901 212.742 73.7245 219.967 70.3898 223.299C67.0455 226.641 59.5186 224.251 59.5186 224.251L53.5828 230.172C51.077 232.695 52.5538 236.237 55.6313 239.312L62.1673 245.842C65.2638 248.927 68.8177 250.383 71.3234 247.88ZM163.6 233.6C173.861 238.464 186.733 236.97 195.251 228.459C201.825 221.89 204.437 212.856 203.035 204.364L188.543 218.825L176.214 221.881L162.285 208.153L165.553 195.425L179.911 181.259C171.403 179.869 161.789 181.878 155.215 188.456C146.688 196.977 145.526 210.152 150.394 220.415L140.924 229.868L154.148 243.053L163.6 233.6ZM122.621 277.429L108.282 263.111L95.8193 275.573C95.6358 275.753 95.4614 275.942 95.2964 276.139C95.1316 276.337 94.9767 276.541 94.8319 276.754C94.6871 276.967 94.5531 277.186 94.43 277.411C94.307 277.637 94.1952 277.869 94.0948 278.105C93.3611 277.82 92.9515 277.81 92.6942 277.915C92.089 277.704 91.4765 277.519 90.8563 277.357C90.2362 277.196 89.6106 277.06 88.9794 276.949C88.3483 276.839 87.7138 276.753 87.0758 276.693C86.4379 276.634 85.7985 276.6 85.1578 276.592C71.9999 276.592 61.3384 287.111 61.3384 300.096C61.3384 313.081 71.9999 323.601 85.1578 323.601C98.3156 323.601 108.977 313.081 108.977 300.096C108.977 297.402 108.415 294.851 107.586 292.442C107.538 292.214 107.529 292.004 107.396 291.671C107.652 291.57 107.902 291.457 108.146 291.331C108.391 291.204 108.628 291.066 108.859 290.916C109.089 290.766 109.311 290.604 109.526 290.431C109.74 290.258 109.944 290.075 110.14 289.881L122.621 277.429ZM85.1578 313.786C77.4212 313.786 71.1614 307.665 71.1614 300.096C71.1614 292.528 77.4117 286.407 85.1578 286.407C92.9038 286.407 99.154 292.528 99.154 300.096C99.154 307.665 92.8943 313.786 85.1578 313.786Z"   fill="#FFFFFF" ></path></g><defs><clipPath id="clip-path-1_2"><path d="M0 512L512 512L512 0L0 0L0 512Z" fill="white"/></clipPath><filter id="filter_1_4" x="109.35009765625" y="21" width="410.6495361328125" height="475.999755859375" filterUnits="userSpaceOnUse" color-interpolation-filters="sRGB"><feFlood flood-opacity="0" result="feFloodId_1_4"/><feColorMatrix in="SourceAlpha" type="matrix" values="0 0 0 0 0 0 0 0 0 0 0 0 0 0 0 0 0 0 127 0" result="hardAlpha_1_4"/><feMorphology radius="2" operator="dilate" in="SourceAlpha"/><feOffset dx="0" dy="3"/><feGaussianBlur stdDeviation="7"/><feComposite in2="hardAlpha_1_4" operator="out"/><feColorMatrix type="matrix" values="0 0 0 0 0 0 0 0 0 0 0 0 0 0 0 0 0 0 0.25 0"/><feBlend mode="normal" in2="feFloodId_1_4" result="dropShadow_1_1_4"/><feBlend mode="normal" in="SourceGraphic" in2="dropShadow_1_1_4" result="shape_1_4"/></filter><mask id="mask-1_4" style="mask-type:alpha" maskUnits="userSpaceOnUse"><rect  x="125.35009765625" y="34" width="378.64957427978516" height="443.9997863769531" rx="25"    fill="#0E64C7" ></rect></mask><filter id="filter_1_8" x="312.6751403808594" y="252.873291015625" width="193.3248291015625" height="112.8731689453125" filterUnits="userSpaceOnUse" color-interpolation-filters="sRGB"><feFlood flood-opacity="0" result="feFloodId_1_8"/><feColorMatrix in="SourceAlpha" type="matrix" values="0 0 0 0 0 0 0 0 0 0 0 0 0 0 0 0 0 0 127 0" result="hardAlpha_1_8"/><feOffset dx="0" dy="3"/><feGaussianBlur stdDeviation="1.5"/><feComposite in2="hardAlpha_1_8" operator="out"/><feColorMatrix type="matrix" values="0 0 0 0 0 0 0 0 0 0 0 0 0 0 0 0 0 0 0.25 0"/><feBlend mode="normal" in2="feFloodId_1_8" result="dropShadow_1_1_8"/><feBlend mode="normal" in="SourceGraphic" in2="dropShadow_1_1_8" result="shape_1_8"/></filter><filter id="filter_1_7" x="121.35009765625" y="147.690185546875" width="386.6495361328125" height="111.1829833984375" filterUnits="userSpaceOnUse" color-interpolation-filters="sRGB"><feFlood flood-opacity="0" result="feFloodId_1_7"/><feColorMatrix in="SourceAlpha" type="matrix" values="0 0 0 0 0 0 0 0 0 0 0 0 0 0 0 0 0 0 127 0" result="hardAlpha_1_7"/><feOffset dx="0" dy="2"/><feGaussianBlur stdDeviation="2"/><feComposite in2="hardAlpha_1_7" operator="out"/><feColorMatrix type="matrix" values="0 0 0 0 0 0 0 0 0 0 0 0 0 0 0 0 0 0 0.25 0"/><feBlend mode="normal" in2="feFloodId_1_7" result="dropShadow_1_1_7"/><feBlend mode="normal" in="SourceGraphic" in2="dropShadow_1_1_7" result="shape_1_7"/></filter><filter id="filter_1_5" x="121.35009765625" y="32" width="386.6495361328125" height="123.69012451171875" filterUnits="userSpaceOnUse" color-interpolation-filters="sRGB"><feFlood flood-opacity="0" result="feFloodId_1_5"/><feColorMatrix in="SourceAlpha" type="matrix" values="0 0 0 0 0 0 0 0 0 0 0 0 0 0 0 0 0 0 127 0" result="hardAlpha_1_5"/><feOffset dx="0" dy="2"/><feGaussianBlur stdDeviation="2"/><feComposite in2="hardAlpha_1_5" operator="out"/><feColorMatrix type="matrix" values="0 0 0 0 0 0 0 0 0 0 0 0 0 0 0 0 0 0 0.25 0"/><feBlend mode="normal" in2="feFloodId_1_5" result="dropShadow_1_1_5"/><feBlend mode="normal" in="SourceGraphic" in2="dropShadow_1_1_5" result="shape_1_5"/></filter><linearGradient id="linear_fill_3_1" x1="325.21350002212523" y1="182.00291930908205" x2="516.1538403166198" y2="34" gradientUnits="userSpaceOnUse"><stop offset="0" stop-color="#C9C9C9"  /><stop offset="1" stop-color="#FFFFFF" stop-opacity="0" /></linearGradient><filter id="filter_1_3" x="-4" y="118.80279541015625" width="277.4761657714844" height="277.26751708984375" filterUnits="userSpaceOnUse" color-interpolation-filters="sRGB"><feFlood flood-opacity="0" result="feFloodId_1_3"/><feColorMatrix in="SourceAlpha" type="matrix" values="0 0 0 0 0 0 0 0 0 0 0 0 0 0 0 0 0 0 127 0" result="hardAlpha_1_3"/><feMorphology radius="2" operator="dilate" in="SourceAlpha"/><feOffset dx="0" dy="3"/><feGaussianBlur stdDeviation="5"/><feComposite in2="hardAlpha_1_3" operator="out"/><feColorMatrix type="matrix" values="0 0 0 0 0 0 0 0 0 0 0 0 0 0 0 0 0 0 0.25 0"/><feBlend mode="normal" in2="feFloodId_1_3" result="dropShadow_1_1_3"/><feBlend mode="normal" in="SourceGraphic" in2="dropShadow_1_1_3" result="shape_1_3"/></filter></defs></svg>